<?xml version="1.0" encoding="UTF-8"?>
<svg id="Capa_2" data-name="Capa 2" xmlns="http://www.w3.org/2000/svg" viewBox="0 0 180.91 213.5">
  <defs>
    <style>
      .cls-1 {
        fill: #f9f4ee;
      }
    </style>
  </defs>
  <g id="Capa_1-2" data-name="Capa 1">
    <g>
      <path class="cls-1" d="M180.54,25.02l-.27-1.32c-.58-.59-1.38-.78-2.12-1.05-18.73-6.92-41.5-12.77-61.04-17.3C111.53,4.06,93.83-.48,89.35.04c-8.19.95-18.76,3.89-26.98,5.84C41.4,10.85,20.7,16.95.26,23.69l-.26,96.65c2.28,49.1,49.54,74.84,88.92,93.15h3.23c38.21-17.11,86.67-43.77,88.4-91.04,1.17-32.22-.96-65.15,0-97.44ZM157.59,163.03c-1.66.7-3.72.85-5.11,1.77-1.7,1.13-3.64,3.81-5.3,5.29-16.55,14.68-36.31,25.14-56.47,34.04-6.27-2.69-12.51-5.6-18.54-8.81-30.11-16.06-61.2-38.09-63.18-75.5-1.48-28.12,1.18-57.53,0-85.79.07-.91.28-2.76.81-3.43.5-.62,13.09-4.42,15.09-5.03,21.33-6.54,43.13-11.57,65-16.03l.86-.09c27.26,5.37,54.28,12.13,80.53,21.12l.21,93.48c3.99,13.97.75,32.81-13.9,38.98Z"/>
      <path class="cls-1" d="M152.98,88.32c-5.42,3.44-5.03-.19-7.18-4.26-2.38-.22-5.89,3.93-7.99,4.17-1.85.21-3.48-3.14-4.76-3.53-5.06-1.5-7.3,4.97-11,4.69-1.91-.14-6.04-3.37-8.21-4-4.54-1.33-9.09,4.72-12.89,3.9-.9-.2-3.29-1.57-4.25-2.12-5.93-3.39-9.76-8.41-10.95-15.25-.78-.05-1.53-.51-2.36-.54-9.21-.32-15.22,3.63-16.56,13.11-.7,4.96,1.77,9.49,3.58,13.9,7.74,5.89,13.49,7.99,23.43,6.23,6.51-1.15,13.77-4.63,20.23-5.18,8.36-.71,13.64,1.32,21.22,2.09,8.82.89,16.38-4.31,17.69-13.19Z"/>
      <path class="cls-1" d="M113.74,153.06c-1.63,3.12-4.59,6.09-7.85,7.5-2.13.92-5.28.79-6.88,1.59-.88.44-3.21,3.32-4.22,4.26-1.11,1.04-1.24.14-1.6,1.83l-6.35,2.12c.32,2.49,1.85,4.81,2.12,7.41.59,5.74-.22,10.91-3.18,15.88,1.26,1.1,11.83-6.09,13.5-7.41,11.75-9.27,20.78-23.42,21.44-38.64l-4.44.06c-.86.26-1.93,4.27-2.53,5.41Z"/>
      <path class="cls-1" d="M78.92,160.03c.45-.5.4-1.2.5-1.33,3.7-4.64,3.62-5,5.29-10.59.03-.12.69-.47.82-1.01,2.46-9.87-.07-23.3-8.22-29.97-1.99-1.63-3.22-2.24-5.83-2.37-5.26-.26-7.25,1.15-10.59,4.76-.28.31-.82.47-1.29,1.08-2.18,2.86-3.23,6.04-4.01,9.51l4.7-.06c1.23-4.49,5.92-7.98,10.3-5.15,7.71,4.99,7.65,19.63,3.1,26.75-4.02,6.29-11.31,5.88-13.38-1.38l-4.72-.04c1.07,11.82,14.19,20.03,23.32,9.8Z"/>
      <path class="cls-1" d="M38.9,81.16c3.38-7.15,4-16.28,6.26-23.92,2.54-8.56,6.93-16.39,13.62-22.38l-5.82.53c8.37-7.61,18.93-12.3,30.44-11.4,6.08.48,18.08,5.14,23.22,8.56.48.32.63.45.85.98,1.8-.13,4.25-1.19,5.29-2.64-8.04-4.44-15.93-9.5-25.19-11.07-20.94-3.57-38.05,9.67-44.56,28.92-2.71,8.02-3.28,16.43-3.81,24.77l-1.07,8.19c.02-.05.59-.17.76-.55Z"/>
      <path class="cls-1" d="M119.64,129.06c-1.66-8.9-10.18-14.68-11.12-23.82-.29-.38-7.7,2.62-8.98,2.93-2.35.58-6.38,1.27-8.74,1.34-1.48.04-2.77-.48-4.22-.59-.55-.04-2.02-.32-1.87.55,5.18.34,9.78,3.47,12.93,7.45.8,1.01,3.06,5.28,3.46,5.54.87.58,3.1.08,4.42.35,3.52.72,5.91,3.62,8.13,6.16l6,.08Z"/>
      <path class="cls-1" d="M157.39,57.27c.3,1.6.76,5.21.68,6.78-.09,1.81-.6,4.3-1.09,6.07.23.12,1.52,2.18,2.64,2.12.73-2.56,1.65-5.06,2.08-7.72.72-4.45.53-9.02-.87-13.34-6.62-20.47-29.58-14.95-46.2-14.94.23.06.82.64,1.55.82,15.5,3.8,37.24-.78,41.2,20.21Z"/>
      <path class="cls-1" d="M78.89,170.58c-.71-.36-.84-.05-1.42.18-2.41.96-4.91,3.21-7.22,4.45-3.62,1.94-7.34,2.83-11.48,2.55-.22.97.3,1.03.88,1.5,2.05,1.66,4.52,2.57,6.7,3.89,4.62,2.79,9.12,5.71,14.12,7.84,2.39-5.2,3.98-10.52,1.53-16.08-.42-.95-2.31-3.93-3.12-4.33Z"/>
      <path class="cls-1" d="M55.88,163.43c-.37-.44-.82-.43-1.33-.5-.41-2.64-2.58-4.92-3.44-7.41-.54-1.55-.67-3.2-1.03-4.8-.45-.72-2.43-.45-3.5-.73-8.58-2.24-8.18-16.99-.52-19.11,1.2-.33,3.11-.02,3.76-.47.62-.43.75-2.17,1.03-2.95.35-1,2.16-5.17,1.56-5.8-3.31-1.13-7.15-1.84-10.03.5l-2.64.8c1.71-3.81,6.65-7.18,10.85-7.18,1.36,0,5.13,1.17,5.57.87,1.23-.87,1.12-4.7,1.56-6.41,1.12-4.41,2.62.07,2.14,2.4,3.34-1.03,6.38-3.42,10.06-3.18.38-1.58-.98-.81-1.89-1.55-.54-.44-.79-1.35-1.29-1.89-4.43-4.75-10.32-8.62-15.88-11.91-.1-.95,1.8-.56,2.34-.49,2.38.34,4.35,1.63,6.66,2.08-1.39-5.04-3.19-10.02-2.64-15.35.75-.12.72.89.92,1.45,1.55,4.32,4.54,10.62,8.33,13.4.56.41,1.22.42,1.33.5-1.8-4.41-4.28-8.94-3.58-13.9,1.34-9.47,7.35-13.42,16.56-13.11.84.03,1.58.49,2.36.54.9.06.2-.55,2.12.53,1.99,2.89,4.76,5.09,8.47,4.76,12.07,6.56,27.18-3.9,39.41-4.79,6.15-.45,16.5.4,21.99,3.2.49-1.77,1-4.26,1.09-6.07.07-1.56-.38-5.18-.68-6.78-3.97-21-25.7-16.42-41.2-20.21-.73-.18-1.32-.76-1.55-.82-.57-.15-1.46.16-2.1-.02-.14-.32.08-.82-.01-1.03-.23-.53-.37-.67-.85-.98-5.14-3.42-17.14-8.08-23.22-8.56-11.51-.9-22.07,3.79-30.44,11.4l5.82-.53c-6.69,5.98-11.08,13.81-13.62,22.38-2.26,7.64-2.88,16.77-6.26,23.92-.18.38-.75.5-.76.55-.7,1.93-.37.87-1.07,1.93-.65.98-.41,3.21-.56,3.34-.27.24-1.33-.11-1.54.03-.06.04.03.81-.52,1.31-1.03.93-3.83,2.15-5.27,3.23-6.84,5.16-10.42,11.69-10.62,20.34-.02.68-.06,1.45,0,2.12.03.34-.07.78,0,1.06.22.84,3.26,4.48,4.04,4.71,2.03.53,1.78-1.79,2.31-2.59.63-.96,2.39-1.66,3.33-2.12.69-.34.01-1.24.9-1.05-1.45,4.03-2.63,7.04-3.21,11.34-.07.52-.49,1-.49,1.09v7.67h-.53c.13-1.11-1.33-2.04-1.59-2.65-.5-1.16-.93-4.67-1.71-5.7-.11-.14-2.8-1.99-3.05-1.71-.07,2.46-.78,4.67-.56,7.2.07.85.55,1.2.56,1.27,1.69,9.63,7.3,15.96,13.76,22.76,1.07,1.12,1.78,2.07,3.19,3.43,2.43,2.34,5.24,6.14,8.75,6.6,4.39.57,9.3-.19,13.46-1.56l-5.02-4.79ZM136.82,50.17c3.75-2.84,9,4.19,7.7,7.97-3.36.77-3.28-1.94-5.01-3.73-1.03-1.07-4.85-2.6-2.69-4.24ZM79.07,35.99l19.37,9.73c2.75,1.3,3.17-1.52,5.32-1.88l.83,5.29c-.92,1.57-4.08,1.83-4.45,2.2-.18.18-.96,3.65-1.75,4.87-4.85,7.47-15.28,6.83-20.27-.21-2-2.82-2.28-7.44-1.21-10.69.42-1.27,1.36-2.25,1.45-3.57l-5.29-2.38c.36-.82,5.21-3.45,6-3.35ZM23.9,111.23c.13.02.28.13.47.36-.19-.23-.35-.34-.47-.36Z"/>
      <path class="cls-1" d="M111.18,142.82c.4-2.49.54-3.87-.12-6.49-.93-3.72-3.34-8.72-7.81-8.33-.41.4.92,3.47,1.06,4.23,1.5,8.33-.06,16.09-3.17,23.82,6.94.27,9.17-7.69,10.06-13.23Z"/>
      <path class="cls-1" d="M97.94,147.58c.45-1.96.94-2.97,1.06-5.29.35-6.64.05-12.4-3.08-18.36-3.01-5.74-7.97-10.22-14.92-9.16,1.31,1.43,2.97,2.45,4.23,3.97.9,1.08,3.16,4.37,3.71,5.56.64,1.39,2.65,8.51,2.65,9.79v10.06c0,.2-.43,3.49-.53,3.97-.41,2.09-3.57,8.82-4.85,10.77-1.38,2.11-3.08,4.01-5.21,5.38.63.45,2.15.37,2.92.28,8.4-.97,12.38-9.86,14.01-16.95Z"/>
      <path class="cls-1" d="M47.51,136.04c-2.95,1.44-3.24,5.59-1.37,8.04,1.69,2.21,2.63.89,4.42.85,4.73-.11,9.49.19,14.22-.07,1.73-.94,1.86-2.4,1.94-4.15l-15.32-.03c-.19-1.78-1.02-3.87-2.68-4.73-.3.08-.81-.1-1.21.1Z"/>
      <path class="cls-1" d="M115.94,141.76h12.97c2.2,0-.39-7.94-2.12-7.94h-11.12c-1.33,0,.11,2.52.23,3.47.19,1.46-.06,3,.03,4.47Z"/>
      <path class="cls-1" d="M147.17,113.71c-3.78,1.07-7.54,4.54-8.47,8.47l4.43,1.54c4.82-5.38,11.88-1.42,14.09,4.29,1.02,2.62,1.94,8.08,1.56,10.82-.09.69-.84,4-1.03,4.53-.61,1.73-4.33,6.32-6.19,6.78-.65.16-2.09-.02-2.24.14-.15.16-.96,3.24-1.41,4.15-.7,1.41-1.7,2.97-2.86,4.02-.03,1.09,5.09.89,6.09.81,2.13-.19,3.25-.77,5.02-1.6,2.88-1.35,4.44-2.75,6.35-5.29,2.28-3.03,3.3-5.91,4.23-9.53,1.61-6.27,1.62-11.89-.8-17.99-3.13-7.89-9.94-13.62-18.79-11.12Z"/>
      <path class="cls-1" d="M29.77,94.67c1.43-1.08,4.24-2.3,5.27-3.23.55-.5.46-1.27.52-1.31-7.46,1.05-14.45,5.64-16.96,12.95-1.21,3.53-2.09,11.22.55,14.05-.06-.66-.02-1.44,0-2.12.2-8.65,3.78-15.18,10.62-20.34Z"/>
      <path class="cls-1" d="M52.39,138.94l15.32.03c.09-2.06.08-4.06-1.94-5.21-4.73.2-10.15-.56-14.79-.12-.88.08-1.1.51-1.27.56,1.66.86,2.49,2.96,2.68,4.73Z"/>
      <path class="cls-1" d="M145.46,135.8c-1.55-6.22-7.23-11.16-13.8-8.74-.71.26-.83.91-.89.94-.63.31-2.31-.06-2.65,1.59,5.48.96,7.3,7.95,6.25,12.87-.2.92-2.36,4.67-3.07,5.13-.92.59-3.11.54-4.24.53l-.3,6.37c2.42,1.64,5.51,2.64,8.43,2.01.81-.18,1.18-.88,1.4-.97.61-.23,1.33-.04,2.31-.6,3.7-2.12,5.91-7.58,6.69-11.58.54-2.81.59-4.69-.12-7.55Z"/>
      <path class="cls-1" d="M138.7,79.04c.58-.59,3.26-3.9,2.64-4.5h-7.67c-.11,0-1.22.47-2.1.56-.76.07-.94-.34-.81.76l4.5,6.09c1.02-1.19,2.35-1.78,3.44-2.9Z"/>
      <path class="cls-1" d="M152.99,77.98c-.86-.7-7.33-2.9-7.94-2.38l2.65,7.41c.38.41,3.59-1.8,4.08-2.27.3-.29.8-1.19,1.2-1.71.43-.56.84-.38.01-1.05Z"/>
      <path class="cls-1" d="M119.91,83.53l3.14-3.21,2.42-4.2-10.05,2.65c-.98.86,4.23,3.97,4.5,4.76Z"/>
      <path class="cls-1" d="M152.98,138.83c.34-2.41-.49-6.17-3.69-5.54.62,2.63,1.89,5.16,1.59,7.94,1.31.19,1.96-1.39,2.1-2.4Z"/>
      <path class="cls-1" d="M103.24,80.36l-8.46-1.33c1.07,1.98,2.64,3.21,4.49,4.39l3.97-3.06Z"/>
      <path class="cls-1" d="M91.06,56.01c0-.81-.91-.54-1.53-1.37-.28-.37-1.13-2.18-1.06-2.53.95-1.27,2.58-2.24,2.59-4.03l-7.93-3.71c-.18,1.17-1.06,1.94-1.36,3.15-1.42,5.65,3.68,10.81,9.29,8.5Z"/>
    </g>
  </g>
</svg>