<?xml version="1.0" encoding="UTF-8"?>
<svg id="Capa_2" data-name="Capa 2" xmlns="http://www.w3.org/2000/svg" viewBox="0 0 467.9 115.82">
  <defs>
    <style>
      .cls-1 {
        fill: #f9f4ee;
      }

      .cls-2 {
        fill: #93d500;
      }
    </style>
  </defs>
  <g id="Capa_1-2" data-name="Capa 1">
    <g>
      <path class="cls-2" d="M226.54,28.58c.22.91-.35,1.05-.79,1.59-3.45,4.14-10.95,11.64-15.08,15.08-.53.44-.68,1.01-1.59.79v-17.47h17.47Z"/>
      <g>
        <path class="cls-1" d="M174.67,97.39v18.43h34.4v-17.64c0-1.34-6.16-.63-7.41-.79V20.64h28.32c.27,0,3.36,3.21,3.44,3.97l.03,23.85c.36,1.28-3.88,5-4.53,5h-19.85v18l6.9.24,12.14,24.91c.12,1,.02.75-.78.78-1.45.06-3.17-.27-4.5.26,1,1.67,1.93,3.43,2.75,5.19,1.88,4.1,3.52,9.01,5.61,12.92,0,.01.02.04.03.05h26.02v-18.43h-7.41l-12.17-25.93,2.65-.26,13.14-12.79.09-43.32-14.03-15.08h-64.84v20.64h6.88v76.75h-6.88Z"/>
        <path class="cls-1" d="M82.57,97.39v18.43h64.94l12.89-12.84.53-1.59-.03-86.31-.5-1.08-14.05-14h-63.78v19.85c0,1.33,6.16.63,7.41.79v76.75h-7.41ZM109.56,20.91c0-.06.74-.79.79-.79h26.46c.3,0,3.51,3.72,4.24,4.23l.26,68.02c-.13.76-4.16,5.03-4.5,5.03h-27.26V20.91Z"/>
        <path class="cls-1" d="M0,97.39v18.43h70.93v-33.78h-20.11v15.35h-23.29V20.64c1.25-.16,7.41.54,7.41-.79V0H0v20.64h7.41v76.75H0Z"/>
      </g>
      <g>
        <path class="cls-2" d="M412.85,20.91c0-1.1,6.02-.91,7.17-.82.54.05,1.83.23,1.83.82v76.48h-6.35v18.43h31.76v-18.43h-6.35V20.11h8.2c.06,0,.79.74.79.79v9.26h18V0h-73.04v30.17h18v-9.26Z"/>
        <path class="cls-2" d="M352.51,97.39v18.43h32.29v-18.43h-6.35V20.91c0-1.3,5.68-.65,6.88-.79V0h-32.82v20.11h6.88v77.28h-6.88Z"/>
      </g>
      <path class="cls-2" d="M341.4,30.7V0h-74.1c1.44,4.31,3.36,8.64,5.75,12.52-.75,1.78-1.31,3.7-2.05,5.48-.14.34-1.07,1.7-1.07,2.04h8.95v78.18h-7.33c-.33.13-.55.29-.55.5v17.11h33.35v-18.43h-6.88v-29.11h25.94v-19.05h-25.14c-.06,0-.79-.74-.79-.79v-27.52c0-.06.74-.79.79-.79h23.55v10.59h19.58Z"/>
    </g>
  </g>
</svg>