<?xml version="1.0" encoding="UTF-8"?>
<svg id="Capa_2" data-name="Capa 2" xmlns="http://www.w3.org/2000/svg" viewBox="0 0 680.17 213.5">
  <defs>
    <style>
      .cls-1 {
        fill: #6e7348;
      }

      .cls-2 {
        fill: #688e00;
      }

      .cls-3 {
        fill: #020202;
      }

      .cls-4 {
        fill: #465900;
      }

      .cls-5 {
        fill: #f9f4ee;
      }

      .cls-6 {
        fill: #93d500;
      }
    </style>
  </defs>
  <g id="Capa_1-2" data-name="Capa 1">
    <g>
      <g>
        <path class="cls-6" d="M89.35.04c4.48-.52,22.18,4.02,27.76,5.31,19.53,4.52,42.31,10.38,61.04,17.3.74.28,1.54.47,2.12,1.05l.27,1.32c-.96,32.29,1.18,65.22,0,97.44-1.72,47.26-50.19,73.93-88.4,91.04h-3.23C49.54,195.19,2.28,169.45,0,120.35L.26,23.69c20.45-6.74,41.14-12.84,62.11-17.81C70.59,3.93,81.16,1,89.35.04ZM89.89,9.54c-21.86,4.46-43.67,9.49-65,16.03-1.99.61-14.59,4.41-15.09,5.03-.53.66-.74,2.51-.81,3.43,1.18,28.26-1.48,57.67,0,85.79,1.97,37.41,33.07,59.44,63.18,75.5,6.03,3.22,12.27,6.12,18.54,8.81,20.16-8.89,39.92-19.36,56.47-34.04,1.66-1.48,3.6-4.16,5.3-5.29,1.39-.92,3.45-1.07,5.11-1.77,14.66-6.16,17.9-25.01,13.9-38.98l-.21-93.48c-26.26-8.99-53.28-15.75-80.53-21.12l-.86.09Z"/>
        <path class="cls-3" d="M89.89,9.54l.86-.09c27.26,5.37,54.28,12.13,80.53,21.12l.21,93.48c3.99,13.97.75,32.81-13.9,38.98-1.66.7-3.72.85-5.11,1.77-1.7,1.13-3.64,3.81-5.3,5.29-16.55,14.68-36.31,25.14-56.47,34.04-6.27-2.69-12.51-5.6-18.54-8.81-30.11-16.06-61.2-38.09-63.18-75.5-1.48-28.12,1.18-57.53,0-85.79.07-.91.28-2.76.81-3.43.5-.62,13.09-4.42,15.09-5.03,21.33-6.54,43.13-11.57,65-16.03ZM41.31,86.18c-.7,1.93-.37.87-1.07,1.93-.65.98-.41,3.21-.56,3.34-.27.24-1.33-.11-1.54.03-7.46,1.05-14.45,5.64-16.96,12.95-1.21,3.53-2.09,11.22.55,14.05.03.34-.07.78,0,1.06.22.84,3.26,4.48,4.04,4.71,2.03.53,1.78-1.79,2.31-2.59.63-.96,2.39-1.66,3.33-2.12.69-.34.01-1.24.9-1.05-1.45,4.03-2.63,7.04-3.21,11.34-.07.52-.49,1-.49,1.09v7.67h-.53c.13-1.11-1.33-2.04-1.59-2.65-.5-1.16-.93-4.67-1.71-5.7-.11-.14-2.8-1.99-3.05-1.71-.07,2.46-.78,4.67-.56,7.2.07.85.55,1.2.56,1.27,1.69,9.63,7.3,15.96,13.76,22.76,1.07,1.12,1.78,2.07,3.19,3.43,2.43,2.34,5.24,6.14,8.75,6.6,4.39.57,9.3-.19,13.46-1.56l-5.02-4.79c-.37-.44-.82-.43-1.33-.5-.41-2.64-2.58-4.92-3.44-7.41-.54-1.55-.67-3.2-1.03-4.8-.45-.72-2.43-.45-3.5-.73-8.58-2.24-8.18-16.99-.52-19.11,1.2-.33,3.11-.02,3.76-.47s.75-2.17,1.03-2.95c.35-1,2.16-5.17,1.56-5.8-3.31-1.13-7.15-1.84-10.03.5l-2.64.8c1.71-3.81,6.65-7.18,10.85-7.18,1.36,0,5.13,1.17,5.57.87,1.23-.87,1.12-4.7,1.56-6.41,1.12-4.41,2.62.07,2.14,2.4,3.34-1.03,6.38-3.42,10.06-3.18.38-1.58-.98-.81-1.89-1.55-.54-.44-.79-1.35-1.29-1.89-4.43-4.75-10.32-8.62-15.88-11.91-.1-.95,1.8-.56,2.34-.49,2.38.34,4.35,1.63,6.66,2.08-1.39-5.04-3.19-10.02-2.64-15.35.75-.12.72.89.92,1.45,1.55,4.32,4.54,10.62,8.33,13.4.56.41,1.22.42,1.33.5,7.74,5.89,13.49,7.99,23.43,6.23,6.51-1.15,13.77-4.63,20.23-5.18,8.36-.71,13.64,1.32,21.22,2.09,8.82.89,16.38-4.31,17.69-13.19-5.42,3.44-5.03-.19-7.18-4.26-2.38-.22-5.89,3.93-7.99,4.17-1.85.21-3.48-3.14-4.76-3.53-5.06-1.5-7.3,4.97-11,4.69-1.91-.14-6.04-3.37-8.21-4-4.54-1.33-9.09,4.72-12.89,3.9-.9-.2-3.29-1.57-4.25-2.12-5.93-3.39-9.76-8.41-10.95-15.25.9.06.2-.55,2.12.53,1.99,2.89,4.76,5.09,8.47,4.76,12.07,6.56,27.18-3.9,39.41-4.79,6.15-.45,16.5.4,21.99,3.2.23.12,1.52,2.18,2.64,2.12.73-2.56,1.65-5.06,2.08-7.72.72-4.45.53-9.02-.87-13.34-6.62-20.47-29.58-14.95-46.2-14.94-.57-.15-1.46.16-2.1-.02-.14-.32.08-.82-.01-1.03,1.8-.13,4.25-1.19,5.29-2.64-8.04-4.44-15.93-9.5-25.19-11.07-20.94-3.57-38.05,9.67-44.56,28.92-2.71,8.02-3.28,16.43-3.81,24.77l-1.07,8.19ZM141.35,74.54h-7.67c-.11,0-1.22.47-2.1.56-.76.07-.94-.34-.81.76l4.5,6.09c1.02-1.19,2.35-1.78,3.44-2.9.58-.59,3.26-3.9,2.64-4.5ZM151.78,80.74c.3-.29.8-1.19,1.2-1.71.43-.56.84-.38.01-1.05s-7.33-2.9-7.94-2.38l2.65,7.41c.38.41,3.59-1.8,4.08-2.27ZM115.41,78.78c-.98.86,4.23,3.97,4.5,4.76l3.14-3.21,2.42-4.2-10.05,2.65ZM103.24,80.36l-8.46-1.33c1.07,1.98,2.64,3.21,4.49,4.39l3.97-3.06ZM108.53,105.24c-.29-.38-7.7,2.62-8.98,2.93-2.35.58-6.38,1.27-8.74,1.34-1.48.04-2.77-.48-4.22-.59-.55-.04-2.02-.32-1.87.55,5.18.34,9.78,3.47,12.93,7.45.8,1.01,3.06,5.28,3.46,5.54.87.58,3.1.08,4.42.35,3.52.72,5.91,3.62,8.13,6.16l6,.08c-1.66-8.9-10.18-14.68-11.12-23.82ZM147.17,113.71c-3.78,1.07-7.54,4.54-8.47,8.47l4.43,1.54c4.82-5.38,11.88-1.42,14.09,4.29,1.02,2.62,1.94,8.08,1.56,10.82-.09.69-.84,4-1.03,4.53-.61,1.73-4.33,6.32-6.19,6.78-.65.16-2.09-.02-2.24.14s-.96,3.24-1.41,4.15c-.7,1.41-1.7,2.97-2.86,4.02-.03,1.09,5.09.89,6.09.81,2.13-.19,3.25-.77,5.02-1.6,2.88-1.35,4.44-2.75,6.35-5.29,2.28-3.03,3.3-5.91,4.23-9.53,1.61-6.27,1.62-11.89-.8-17.99-3.13-7.89-9.94-13.62-18.79-11.12ZM60.89,119.53c-.28.31-.82.47-1.29,1.08-2.18,2.86-3.23,6.04-4.01,9.51l4.71-.06c1.23-4.49,5.92-7.98,10.3-5.15,7.71,4.99,7.65,19.63,3.1,26.75-4.02,6.29-11.31,5.88-13.38-1.38l-4.72-.04c1.07,11.82,14.19,20.03,23.32,9.8.45-.5.4-1.2.5-1.33,3.7-4.64,3.62-5,5.29-10.59.03-.12.69-.47.82-1.01,2.46-9.87-.07-23.3-8.22-29.97-1.99-1.63-3.22-2.24-5.83-2.37-5.26-.26-7.25,1.15-10.59,4.76ZM88.95,124.29c.64,1.39,2.65,8.51,2.65,9.79v10.06c0,.2-.43,3.49-.53,3.97-.41,2.09-3.57,8.82-4.85,10.77-1.38,2.11-3.08,4.01-5.21,5.38.63.45,2.15.37,2.92.28,8.4-.97,12.38-9.86,14.01-16.95.45-1.96.94-2.97,1.06-5.29.35-6.64.05-12.4-3.08-18.36s-7.97-10.22-14.92-9.16c1.31,1.43,2.97,2.45,4.23,3.97.9,1.08,3.16,4.37,3.71,5.56ZM130.76,128c-.63.31-2.31-.06-2.65,1.59,5.48.96,7.3,7.95,6.25,12.87-.2.92-2.36,4.67-3.07,5.13-.92.59-3.11.54-4.24.53l-.3,6.37c2.42,1.64,5.51,2.64,8.43,2.01.81-.18,1.17-.88,1.4-.97.61-.23,1.33-.04,2.31-.6,3.7-2.12,5.91-7.58,6.69-11.58.54-2.81.59-4.69-.12-7.55-1.55-6.22-7.23-11.16-13.8-8.74-.71.26-.83.91-.89.94ZM104.3,132.23c1.5,8.33-.06,16.09-3.17,23.82,6.94.27,9.17-7.69,10.06-13.23.4-2.49.54-3.87-.12-6.49-.93-3.72-3.34-8.72-7.81-8.33-.41.4.92,3.47,1.06,4.23ZM150.88,141.23c1.31.19,1.96-1.39,2.1-2.4.34-2.41-.49-6.17-3.69-5.54.62,2.63,1.89,5.16,1.59,7.94ZM115.94,141.76h12.97c2.2,0-.39-7.94-2.12-7.94h-11.12c-1.33,0,.11,2.52.23,3.47.19,1.46-.06,3,.03,4.47ZM48.72,135.94c-.3.08-.81-.1-1.21.1-2.95,1.44-3.24,5.59-1.37,8.04,1.69,2.21,2.63.89,4.42.85,4.73-.11,9.49.19,14.22-.07,1.73-.94,1.86-2.4,1.94-4.15.09-2.06.08-4.06-1.94-5.21-4.73.2-10.15-.56-14.79-.12-.88.08-1.1.51-1.27.56ZM88.95,177.75c.59,5.74-.22,10.91-3.18,15.88,1.26,1.1,11.83-6.09,13.5-7.41,11.75-9.27,20.78-23.42,21.44-38.64l-4.44.06c-.86.26-1.93,4.27-2.53,5.41-1.63,3.12-4.59,6.09-7.85,7.5-2.13.92-5.28.79-6.88,1.59-.88.44-3.21,3.32-4.22,4.26-1.11,1.04-1.24.14-1.6,1.83l-6.35,2.12c.32,2.49,1.85,4.81,2.12,7.41ZM80.47,190.99c2.39-5.2,3.98-10.51,1.53-16.08-.42-.95-2.31-3.93-3.12-4.33-.71-.36-.84-.05-1.42.18-2.41.96-4.91,3.21-7.22,4.45-3.62,1.94-7.34,2.83-11.48,2.55-.22.97.3,1.03.88,1.5,2.05,1.67,4.52,2.57,6.7,3.89,4.62,2.79,9.12,5.71,14.12,7.84Z"/>
        <g>
          <path class="cls-6" d="M110.65,38.02c.09.21-.12.71.01,1.03.65.18,1.54-.13,2.1.02.23.06.82.64,1.55.82,15.5,3.8,37.24-.78,41.2,20.21.3,1.6.76,5.21.68,6.78-.09,1.81-.6,4.3-1.09,6.07-5.49-2.8-15.84-3.65-21.99-3.2-12.23.89-27.34,11.35-39.41,4.79-2.83-1.54-5.71-3.21-8.47-4.76-1.92-1.08-1.22-.47-2.12-.53-.78-.05-1.53-.51-2.36-.54-9.21-.32-15.22,3.63-16.56,13.11-.7,4.96,1.77,9.49,3.58,13.9-.11-.08-.78-.09-1.33-.5-3.79-2.77-6.78-9.08-8.33-13.4-.2-.56-.18-1.58-.92-1.45-.55,5.33,1.25,10.31,2.64,15.35-2.3-.45-4.28-1.74-6.66-2.08-.54-.08-2.44-.46-2.34.49,5.55,3.29,11.45,7.16,15.88,11.91.5.54.75,1.45,1.29,1.89.9.73,2.27-.03,1.89,1.55-3.68-.25-6.71,2.15-10.06,3.18.48-2.33-1.01-6.81-2.14-2.4-.44,1.72-.33,5.54-1.56,6.41-.43.3-4.21-.86-5.57-.87-4.19,0-9.13,3.37-10.85,7.18l2.64-.8c2.22.3,6.14.86,7.44,2.88.56.87.29,1.88,1.03,2.41-.27.77-.41,2.51-1.03,2.95-.65.45-2.56.14-3.76.47-7.66,2.11-8.06,16.86.52,19.11,1.07.28,3.05.02,3.5.73.35,1.59.49,3.24,1.03,4.8.86,2.49,3.03,4.77,3.44,7.41-1.85-.26-4.08.16-6.05-.04-4.34-.44-8.68-2.65-13.01-3.13-6.46-6.8-12.07-13.13-13.76-22.76.69-1.79,3.16-.87,4.76-1.06.26.6,1.72,1.54,1.59,2.64h.53s0-7.67,0-7.67c0-.1.42-.57.49-1.09.58-4.3,1.75-7.32,3.21-11.34-.88-.19-.2.71-.9,1.05-.94.46-2.71,1.17-3.33,2.12l-3.6-7.25-.1-2.81c-.78-.92-.92.11-1.05.79-.14.74-.35,1.45-.49,2.19-.2,1.01.55,2.09-1.1,1.79.2-8.65,3.78-15.18,10.62-20.34,1.43-1.08,4.24-2.3,5.26-3.23.56-.5.46-1.27.52-1.31.21-.14,1.27.21,1.54-.03.15-.13-.09-2.35.56-3.34.7-1.05.37,0,1.07-1.93.02-.05.59-.17.76-.55,3.38-7.15,4-16.28,6.26-23.92,2.54-8.56,6.93-16.39,13.62-22.38l-5.82.53c8.37-7.61,18.93-12.3,30.44-11.4,6.08.48,18.08,5.14,23.22,8.56.48.32.63.45.85.98ZM103.77,43.84c-2.15.36-2.57,3.18-5.32,1.88l-19.37-9.73c-.79-.09-5.64,2.54-6,3.35l5.29,2.38c-.1,1.33-1.04,2.3-1.45,3.57-1.07,3.25-.79,7.87,1.21,10.69,4.99,7.04,15.42,7.68,20.27.21.79-1.21,1.56-4.69,1.75-4.87.38-.37,3.53-.63,4.45-2.2l-.83-5.29ZM144.52,58.13c1.3-3.78-3.95-10.8-7.7-7.97-2.16,1.64,1.66,3.17,2.69,4.24,1.73,1.79,1.65,4.5,5.01,3.73Z"/>
          <path class="cls-5" d="M83.12,69.25c1.18,6.84,5.01,11.86,10.95,15.25.96.55,3.35,1.92,4.25,2.12,3.79.83,8.35-5.22,12.89-3.9,2.16.63,6.3,3.86,8.21,4,3.7.28,5.94-6.19,11-4.69,1.29.38,2.91,3.74,4.76,3.53,2.1-.24,5.61-4.4,7.99-4.17,2.14,4.07,1.75,7.71,7.18,4.26-1.31,8.88-8.87,14.08-17.69,13.19-7.58-.77-12.86-2.8-21.22-2.09-6.46.55-13.71,4.02-20.23,5.18-9.94,1.76-15.69-.33-23.43-6.23-1.8-4.41-4.28-8.94-3.58-13.9,1.34-9.47,7.35-13.42,16.56-13.11.84.03,1.58.49,2.36.54Z"/>
          <path class="cls-5" d="M93.18,168.23c.36-1.68.49-.79,1.6-1.83,1.01-.94,3.34-3.82,4.22-4.26,1.6-.79,4.76-.66,6.88-1.59,3.26-1.41,6.22-4.38,7.85-7.5.6-1.15,1.66-5.16,2.53-5.41l4.44-.06c-.66,15.22-9.69,29.37-21.44,38.64-1.67,1.32-12.24,8.51-13.5,7.41,2.95-4.96,3.77-10.13,3.18-15.88,2.46-2.64,3.5-6.09,4.23-9.53Z"/>
          <path class="cls-4" d="M71.48,117.41c7.55,1.92,11.7,13.35,12.19,20.36.19,2.65-.03,7.78-.54,10.33-.17.85-1.71,4.42-2.18,5.49-.81,1.82-2.67,2.86-1.52,5.1-.1.13-.05.82-.5,1.33-9.13,10.23-22.25,2.03-23.32-9.8l4.72.04c2.07,7.26,9.36,7.68,13.38,1.38,4.55-7.13,4.61-21.76-3.1-26.75-4.37-2.83-9.07.66-10.3,5.15l-4.71.06c.78-3.46,1.82-6.65,4.01-9.51.46-.61,1-.77,1.29-1.08,3.91-1.62,6.21-3.23,10.59-2.12Z"/>
          <path class="cls-5" d="M41.31,86.18l1.07-8.19c.53-8.34,1.1-16.75,3.81-24.77,6.51-19.25,23.62-32.49,44.56-28.92,9.26,1.58,17.15,6.63,25.19,11.07-1.04,1.45-3.49,2.51-5.29,2.64-.23-.53-.37-.67-.85-.98-5.14-3.42-17.14-8.08-23.22-8.56-11.51-.9-22.07,3.79-30.44,11.4l5.82-.53c-6.69,5.98-11.08,13.81-13.62,22.38-2.26,7.64-2.88,16.77-6.26,23.92-.18.38-.75.5-.76.55Z"/>
          <path class="cls-5" d="M108.53,105.24c.93,9.14,9.46,14.92,11.12,23.82l-6-.08c-2.22-2.54-4.6-5.44-8.13-6.16-1.31-.27-3.55.23-4.42-.35-.4-.27-2.66-4.53-3.46-5.54-3.15-3.98-7.75-7.11-12.93-7.45-.15-.87,1.32-.59,1.87-.55,1.46.11,2.74.64,4.22.59,2.37-.07,6.4-.77,8.74-1.34,1.28-.31,8.69-3.31,8.98-2.93Z"/>
          <path class="cls-5" d="M112.77,39.08c16.62-.01,39.58-5.54,46.2,14.94,1.4,4.33,1.59,8.89.87,13.34-.43,2.65-1.35,5.16-2.08,7.72-1.13.06-2.41-2-2.64-2.12.49-1.77,1-4.26,1.09-6.07.07-1.56-.38-5.18-.68-6.78-3.97-21-25.7-16.42-41.2-20.21-.73-.18-1.32-.76-1.55-.82Z"/>
          <path class="cls-2" d="M130.76,128c3.67,1.31,7.57,1.19,10.33,4.22,1.08,1.18,3.45,5.28,3.85,6.74s-.47,3.31.64,4.39c-.77,4-2.98,9.45-6.69,11.58-.98.56-1.7.37-2.31.6-.52-.98-1.79-.85-2.62-1.35-2.23-1.34-2.93-4.13-2.67-6.59.71-.46,2.88-4.21,3.07-5.13,1.05-4.91-.77-11.9-6.25-12.87.34-1.64,2.02-1.28,2.65-1.59Z"/>
          <path class="cls-2" d="M80.47,190.99c-5-2.13-9.5-5.05-14.12-7.84-2.18-1.32-4.64-2.22-6.7-3.89-.58-.47-1.1-.52-.88-1.5,4.13.28,7.86-.61,11.48-2.55,2.31-1.24,4.81-3.49,7.22-4.45.57-.23.7-.53,1.42-.18.81.4,2.7,3.38,3.12,4.33,2.45,5.57.86,10.88-1.53,16.08Z"/>
          <path class="cls-4" d="M147.17,113.71c.87,1.12,2.75.29,3.91.51.41.08.2.83.69,1.06,6.17,2.91,8.64,4.61,11.28,11.13-1.28,1.4-3.99,1.33-5.82,1.59-2.22-5.71-9.27-9.67-14.09-4.29l-4.43-1.54c.93-3.92,4.69-7.4,8.47-8.47Z"/>
          <path class="cls-2" d="M99,142.29c-.12,2.32-.61,3.33-1.06,5.29-2.32.22-4.52.79-6.88.53.1-.48.53-3.77.53-3.97v-10.06c0-1.28-2.01-8.4-2.65-9.79,9.01.53,6.85,12.21,10.06,18Z"/>
          <path class="cls-2" d="M54.54,162.93c.51.07.96.06,1.33.5l5.02,4.79c-4.17,1.37-9.07,2.13-13.46,1.56-3.51-.46-6.32-4.25-8.75-6.6-1.41-1.36-2.12-2.3-3.19-3.43,4.33.49,8.67,2.69,13.01,3.13,1.97.2,4.2-.21,6.05.04Z"/>
          <path class="cls-2" d="M164.64,142.82c-.67,3.53-1.34,4.34-3.71,6.88.36-2.47-1.25-5-3.18-6.35.19-.53.94-3.84,1.03-4.53.38-2.74-.54-8.2-1.56-10.82,1.83-.26,4.54-.19,5.82-1.59,2.37,5.87,2.8,10.04,1.59,16.41Z"/>
          <path class="cls-4" d="M160.93,149.7c-.22.24-.38.99-.53,1.06-.17.08-.72-.19-.96.08-.21.23-.24,1.29-.52,1.87-.93,1.93-2.68,2.86-2.76,4.93-1.76.83-2.88,1.41-5.02,1.6-1.01.09-6.12.28-6.09-.81,1.16-1.05,2.16-2.61,2.86-4.02.45-.91,1.26-3.99,1.41-4.15s1.59.03,2.24-.14c1.86-.47,5.59-5.06,6.19-6.78,1.93,1.35,3.53,3.88,3.18,6.35Z"/>
          <path class="cls-2" d="M111.18,142.82c-.88,5.54-3.11,13.5-10.06,13.23,3.12-7.72,4.67-15.49,3.17-23.82,1.71.16,3.27,1.62,4.15,2.99,1.54,2.38,1.49,5.18,2.73,7.59Z"/>
          <path class="cls-4" d="M97.94,147.58c-1.64,7.09-5.61,15.98-14.01,16.95-.77.09-2.29.17-2.92-.28,2.13-1.36,3.83-3.27,5.21-5.38,1.27-1.95,4.43-8.68,4.85-10.77,2.36.26,4.56-.31,6.88-.53Z"/>
          <path class="cls-4" d="M48.72,135.94c1.66.86,2.49,2.96,2.68,4.73l15.32.03c-.08,1.75-.21,3.21-1.94,4.15-4.73.26-9.48-.04-14.22.07-1.79.04-2.73,1.36-4.42-.85-1.87-2.45-1.58-6.59,1.37-8.04.4-.2.91-.02,1.21-.1Z"/>
          <path class="cls-6" d="M84.71,148.11h-1.59c.51-2.55.73-7.68.54-10.33-.49-7.02-4.64-18.45-12.19-20.36v-2.65c2.62.13,3.84.74,5.83,2.37,8.15,6.67,10.68,20.1,8.22,29.97-.13.54-.79.89-.82,1.01Z"/>
          <path class="cls-6" d="M99,142.29c-3.21-5.78-1.04-17.46-10.06-18-.54-1.19-2.81-4.48-3.71-5.56-1.26-1.51-2.93-2.54-4.23-3.97,6.94-1.06,11.9,3.42,14.92,9.16s3.43,11.72,3.08,18.36Z"/>
          <path class="cls-5" d="M115.94,141.76c-.09-1.46.15-3.01-.03-4.47-.12-.95-1.56-3.47-.23-3.47h11.12c1.73,0,4.32,7.94,2.12,7.94h-12.97Z"/>
          <path class="cls-6" d="M166.75,142.82h-2.12c1.21-6.37.78-10.54-1.59-16.41-2.63-6.52-5.1-8.22-11.28-11.13-.49-.23-.28-.98-.69-1.06-1.16-.23-3.04.61-3.91-.51,8.85-2.5,15.66,3.23,18.79,11.12,2.42,6.1,2.41,11.73.8,17.99Z"/>
          <path class="cls-2" d="M38.13,91.48c-.06.04.03.81-.52,1.31-1.03.93-3.83,2.15-5.26,3.23-6.84,5.16-10.42,11.69-10.62,20.34-.02.68-.06,1.45,0,2.12-2.64-2.83-1.76-10.52-.55-14.05,2.51-7.31,9.5-11.9,16.96-12.95Z"/>
          <path class="cls-6" d="M66.72,140.7l-15.32-.03c-.19-1.78-1.02-3.87-2.68-4.73.17-.05.39-.48,1.27-.56,4.64-.44,10.06.31,14.79.12,2.02,1.15,2.03,3.15,1.94,5.21Z"/>
          <path class="cls-6" d="M145.58,143.35c-1.11-1.08-.25-2.95-.64-4.39s-2.77-5.56-3.85-6.74c-2.76-3.03-6.66-2.91-10.33-4.22.06-.03.18-.67.89-.94,6.58-2.42,12.25,2.52,13.8,8.74.71,2.86.67,4.74.12,7.55Z"/>
          <path class="cls-4" d="M131.29,147.58c-.26,2.46.44,5.25,2.67,6.59.84.5,2.1.36,2.62,1.35-.23.09-.59.79-1.4.97-2.92.63-6.01-.37-8.43-2.01l.3-6.37c1.13.01,3.32.07,4.24-.53Z"/>
          <path class="cls-5" d="M141.35,74.54c.61.6-2.07,3.91-2.64,4.5-1.1,1.13-2.43,1.71-3.44,2.9l-4.5-6.09c-.13-1.11.05-.69.81-.76.88-.08,1.99-.56,2.1-.56h7.67Z"/>
          <path class="cls-2" d="M21.73,116.35c1.65.3.91-.78,1.1-1.79.14-.73.35-1.44.49-2.19.13-.67.27-1.71,1.05-.79l.1,2.81,3.6,7.25c-.53.81-.29,3.12-2.31,2.59-.78-.23-3.82-3.87-4.04-4.71l.53-.27c.27-.64-.37-.61-.53-.79-.06-.66-.02-1.44,0-2.12Z"/>
          <path class="cls-6" d="M111.18,142.82c-1.24-2.42-1.19-5.22-2.73-7.59-.89-1.37-2.45-2.83-4.15-2.99-.14-.77-1.47-3.83-1.06-4.23,4.48-.39,6.88,4.61,7.81,8.33.66,2.63.52,4,.12,6.49Z"/>
          <path class="cls-5" d="M151.78,80.74c-.49.47-3.7,2.68-4.08,2.27l-2.65-7.41c.61-.52,7.08,1.68,7.94,2.38s.42.49-.01,1.05c-.4.52-.9,1.42-1.2,1.71Z"/>
          <path class="cls-5" d="M115.41,78.78l10.05-2.65-2.42,4.2-3.14,3.21c-.27-.79-5.48-3.9-4.5-4.76Z"/>
          <path class="cls-2" d="M93.18,168.23c-.74,3.43-1.78,6.89-4.23,9.53-.27-2.59-1.8-4.92-2.12-7.41l6.35-2.12Z"/>
          <path class="cls-2" d="M21.73,137c-.01-.07-.49-.42-.56-1.27-.22-2.53.49-4.74.56-7.2.25-.28,2.94,1.57,3.05,1.71.78,1.03,1.21,4.54,1.71,5.7-1.6.19-4.08-.73-4.76,1.06Z"/>
          <path class="cls-2" d="M42.37,122.18c2.88-2.34,6.72-1.64,10.03-.5.6.63-1.21,4.8-1.56,5.8-.74-.54-.47-1.54-1.03-2.41-1.3-2.02-5.22-2.58-7.44-2.88Z"/>
          <path class="cls-2" d="M166.75,142.82c-.93,3.61-1.96,6.49-4.23,9.53h-2.12s0-1.59,0-1.59c.15-.07.31-.82.53-1.06,2.37-2.54,3.03-3.35,3.71-6.88h2.12Z"/>
          <path class="cls-2" d="M84.71,148.11c-1.67,5.59-1.6,5.95-5.29,10.59-1.15-2.24.71-3.27,1.52-5.1.48-1.07,2.01-4.64,2.18-5.49h1.59Z"/>
          <path class="cls-2" d="M71.48,114.77v2.65c-4.38-1.11-6.67.5-10.59,2.12,3.34-3.61,5.33-5.03,10.59-4.76Z"/>
          <path class="cls-5" d="M150.88,141.23c.3-2.78-.97-5.31-1.59-7.94,3.2-.64,4.02,3.12,3.69,5.54-.14,1.01-.79,2.59-2.1,2.4Z"/>
          <path class="cls-5" d="M103.24,80.36l-3.97,3.06c-1.85-1.19-3.42-2.41-4.49-4.39l8.46,1.33Z"/>
          <path class="cls-2" d="M160.4,150.76v1.59s2.12,0,2.12,0c-1.91,2.55-3.47,3.94-6.35,5.29.08-2.07,1.83-2.99,2.76-4.93.28-.58.31-1.64.52-1.87.24-.27.79,0,.96-.08Z"/>
          <path class="cls-5" d="M93.71,74.54c-3.71.32-6.48-1.88-8.47-4.76,2.76,1.56,5.64,3.23,8.47,4.76Z"/>
          <path class="cls-1" d="M21.73,119.53c-.07-.28.03-.71,0-1.06.16.17.8.15.53.79l-.53.27Z"/>
          <path class="cls-3" d="M103.77,43.84l.83,5.29c-.92,1.57-4.08,1.83-4.45,2.2-.18.18-.96,3.65-1.75,4.87-4.85,7.47-15.28,6.83-20.27-.21-2-2.82-2.28-7.44-1.21-10.69.42-1.27,1.36-2.25,1.45-3.57l-5.29-2.38c.36-.82,5.21-3.45,6-3.35l19.37,9.73c2.75,1.3,3.17-1.52,5.32-1.88ZM91.06,48.08l-7.93-3.71c-.18,1.17-1.06,1.94-1.36,3.15-1.42,5.65,3.68,10.81,9.29,8.5,0-.81-.91-.54-1.53-1.37-.28-.37-1.13-2.18-1.06-2.53.95-1.27,2.58-2.24,2.59-4.03Z"/>
          <path class="cls-3" d="M144.52,58.13c-3.36.77-3.28-1.94-5.01-3.73-1.03-1.07-4.85-2.6-2.69-4.24,3.75-2.84,9,4.19,7.7,7.97Z"/>
          <path class="cls-5" d="M91.06,48.08c-.02,1.8-1.64,2.76-2.59,4.03-.08.35.78,2.16,1.06,2.53.62.83,1.53.56,1.53,1.37-5.61,2.31-10.71-2.85-9.29-8.5.3-1.2,1.18-1.97,1.36-3.15l7.93,3.71Z"/>
        </g>
      </g>
      <g>
        <path class="cls-6" d="M438.81,72.95c.22.91-.35,1.05-.79,1.59-3.45,4.14-10.95,11.64-15.08,15.08-.53.44-.68,1.01-1.59.79v-17.47h17.47Z"/>
        <g>
          <path class="cls-5" d="M386.94,141.76v18.43h34.4v-17.64c0-1.34-6.16-.63-7.41-.79v-76.75h28.32c.27,0,3.36,3.21,3.44,3.97l.03,23.85c.36,1.28-3.88,5-4.53,5h-19.85v18l6.9.24,12.14,24.91c.12,1,.02.75-.78.78-1.45.06-3.17-.27-4.5.26,1,1.67,1.93,3.43,2.75,5.19,1.88,4.1,3.52,9.01,5.61,12.92,0,.01.02.04.03.05h26.02v-18.43h-7.41l-12.17-25.93,2.65-.26,13.14-12.79.09-43.32-14.03-15.08h-64.84v20.64h6.88v76.75h-6.88Z"/>
          <path class="cls-5" d="M294.84,141.76v18.43h64.94l12.89-12.84.53-1.59-.03-86.31-.5-1.08-14.05-14h-63.78v19.85c0,1.33,6.16.63,7.41.79v76.75h-7.41ZM321.84,65.28c0-.06.74-.79.79-.79h26.46c.3,0,3.51,3.72,4.24,4.23l.26,68.02c-.13.76-4.16,5.03-4.5,5.03h-27.26v-76.48Z"/>
          <path class="cls-5" d="M212.27,141.76v18.43h70.93v-33.78h-20.11v15.35h-23.29v-76.75c1.25-.16,7.41.54,7.41-.79v-19.85h-34.93v20.64h7.41v76.75h-7.41Z"/>
        </g>
        <g>
          <path class="cls-6" d="M625.12,65.28c0-1.1,6.02-.91,7.17-.82.54.05,1.83.23,1.83.82v76.48h-6.35v18.43h31.76v-18.43h-6.35v-77.28h8.2c.06,0,.79.74.79.79v9.26h18v-30.17h-73.04v30.17h18v-9.26Z"/>
          <path class="cls-6" d="M564.78,141.76v18.43h32.29v-18.43h-6.35v-76.48c0-1.3,5.68-.65,6.88-.79v-20.11h-32.82v20.11h6.88v77.28h-6.88Z"/>
        </g>
        <path class="cls-6" d="M553.67,75.07v-30.7h-74.1c1.44,4.31,3.36,8.64,5.75,12.52-.75,1.78-1.31,3.7-2.05,5.48-.14.34-1.07,1.7-1.07,2.04h8.95v78.18h-7.33c-.33.13-.55.29-.55.5v17.11h33.35v-18.43h-6.88v-29.11h25.94v-19.05h-25.14c-.06,0-.79-.74-.79-.79v-27.52c0-.06.74-.79.79-.79h23.55v10.59h19.58Z"/>
      </g>
    </g>
  </g>
</svg>